M48
;Layer_Color=9474304
;FILE_FORMAT=4:4
METRIC,LZ
;TYPE=PLATED
T01F00S00C0.8000
T02F00S00C0.8890
T03F00S00C1.0500
T04F00S00C1.2000
T05F00S00C1.4000
T06F00S00C3.0000
;TYPE=NON_PLATED
T07F00S00C2.0320
%
T01
X0111506Y0123698
X0113506
X0115506
T02
X0120777Y0085598
Y0088138
Y0090678
Y0093218
Y0095758
Y0098298
Y0100838
Y0103378
Y0105918
Y0108458
Y0110998
Y0113538
Y0116078
Y0118618
X0143637
Y0116078
Y0113538
Y0110998
Y0108458
Y0105918
Y0103378
Y0100838
Y0098298
Y0095758
Y0093218
Y0090678
Y0088138
Y0085598
Y0121158
X0120777
T03
X0092981Y0101239
Y0103739
T04
X0091694Y0080518
Y009525
X0114808Y0095758
Y0091694
Y0084582
Y0080518
X0116459Y0101092
Y0103632
Y0106172
Y0108712
Y0111252
Y0113792
T05
X0109356Y0123698
X0117656
T06
X0142494Y0076835
X00919247Y01240364
T07
X010541Y0101092
Y0113792
M30
