G04*
G04 #@! TF.GenerationSoftware,Altium Limited,Altium Designer,24.6.1 (21)*
G04*
G04 Layer_Color=65535*
%FSLAX44Y44*%
%MOMM*%
G71*
G04*
G04 #@! TF.SameCoordinates,8B27C9E9-A4C2-4BD9-AFE1-7C446D6426E9*
G04*
G04*
G04 #@! TF.FilePolarity,Positive*
G04*
G01*
G75*
%ADD10C,0.2000*%
%ADD11C,0.2540*%
%ADD12C,0.1270*%
%ADD13C,0.2032*%
%ADD14C,0.2030*%
D10*
X1455570Y853780D02*
G03*
X1455570Y853780I-1000J0D01*
G01*
X930810Y1069290D02*
G03*
X930810Y1069290I-1000J0D01*
G01*
D11*
X890270Y744220D02*
X1452880D01*
X890270Y1268730D02*
X1452880D01*
Y744220D02*
Y1268730D01*
X890270Y744220D02*
Y1268730D01*
X891769Y918540D02*
X897669Y912640D01*
X890770Y918540D02*
X891769D01*
Y839041D02*
X897669Y844941D01*
X890570Y839041D02*
X891769D01*
X897669Y844941D02*
Y912640D01*
X890570Y838840D02*
Y918840D01*
X894080Y789940D02*
Y972820D01*
X1170940Y789940D02*
Y972820D01*
X894080D02*
X1170940D01*
X894080Y789940D02*
X1170940D01*
X1168403Y1193798D02*
Y1181102D01*
X1170943Y1178562D01*
X1176021D01*
X1178560Y1181102D01*
Y1193798D01*
X1183638Y1178562D02*
X1188717D01*
X1186178D01*
Y1193798D01*
X1183638Y1191258D01*
X1002535Y1179825D02*
X997456D01*
X999995D01*
Y1167129D01*
X997456Y1164590D01*
X994917D01*
X992378Y1167129D01*
X1015231Y1164590D02*
Y1179825D01*
X1007613Y1172207D01*
X1017770D01*
X1062991Y1261107D02*
X1057913D01*
X1060452D01*
Y1248412D01*
X1057913Y1245872D01*
X1055373D01*
X1052834Y1248412D01*
X1068069Y1258568D02*
X1070608Y1261107D01*
X1075687D01*
X1078226Y1258568D01*
Y1256029D01*
X1075687Y1253490D01*
X1073148D01*
X1075687D01*
X1078226Y1250951D01*
Y1248412D01*
X1075687Y1245872D01*
X1070608D01*
X1068069Y1248412D01*
X908051Y1085847D02*
X902972D01*
X905512D01*
Y1073152D01*
X902972Y1070612D01*
X900433D01*
X897894Y1073152D01*
X923286Y1070612D02*
X913129D01*
X923286Y1080769D01*
Y1083308D01*
X920747Y1085847D01*
X915668D01*
X913129Y1083308D01*
X974090Y991868D02*
X969012D01*
X971551D01*
Y979172D01*
X969012Y976633D01*
X966472D01*
X963933Y979172D01*
X979168Y976633D02*
X984247D01*
X981708D01*
Y991868D01*
X979168Y989328D01*
D12*
X1091060Y1214980D02*
X1179060D01*
X1091060D02*
Y1258980D01*
X1095060D01*
X1175060D01*
X1179060D01*
Y1214980D02*
Y1258980D01*
X1175060D02*
Y1278980D01*
X1095060D02*
X1175060D01*
X1095060Y1258980D02*
Y1278980D01*
X1195070Y792480D02*
Y1275080D01*
Y792480D02*
X1449070D01*
X1195070Y1275080D02*
X1449070D01*
Y792480D02*
Y1275080D01*
X895810Y987890D02*
Y1061890D01*
Y987890D02*
X953310D01*
Y1061890D01*
X895810D02*
X953310D01*
D13*
X904240Y939800D02*
Y965200D01*
Y792480D02*
Y817880D01*
Y792480D02*
X929640D01*
X1160780Y951230D02*
Y970280D01*
X1135380D02*
X1160780D01*
X1135380Y944880D02*
Y970280D01*
Y944880D02*
X1160780D01*
Y798830D02*
Y817880D01*
X1135380D02*
X1160780D01*
X1135380Y792480D02*
Y817880D01*
Y792480D02*
X1160780D01*
Y910590D02*
Y929640D01*
X1135380D02*
X1160780D01*
X1135380Y904240D02*
X1160780D01*
Y839470D02*
Y858520D01*
X1135380D02*
X1160780D01*
X1135380Y833120D02*
X1160780D01*
X1151890Y998220D02*
Y1017270D01*
Y998220D02*
X1177290D01*
Y1150620D01*
X1151890D02*
X1177290D01*
X1138875Y1139669D02*
X1140541Y1138003D01*
X1143874D01*
X1145540Y1139669D01*
Y1146334D01*
X1143874Y1148000D01*
X1140541D01*
X1138875Y1146334D01*
X1128878Y1139669D02*
X1130545Y1138003D01*
X1133877D01*
X1135543Y1139669D01*
Y1141336D01*
X1133877Y1143002D01*
X1130545D01*
X1128878Y1144668D01*
Y1146334D01*
X1130545Y1148000D01*
X1133877D01*
X1135543Y1146334D01*
X1140145Y1114269D02*
X1141811Y1112603D01*
X1145144D01*
X1146810Y1114269D01*
Y1115936D01*
X1145144Y1117602D01*
X1141811D01*
X1140145Y1119268D01*
Y1120934D01*
X1141811Y1122600D01*
X1145144D01*
X1146810Y1120934D01*
X1136813Y1112603D02*
Y1122600D01*
X1131814D01*
X1130148Y1120934D01*
Y1114269D01*
X1131814Y1112603D01*
X1136813D01*
X1121818D02*
X1125150D01*
X1126816Y1114269D01*
Y1120934D01*
X1125150Y1122600D01*
X1121818D01*
X1120152Y1120934D01*
Y1114269D01*
X1121818Y1112603D01*
X1140145Y1090139D02*
X1141811Y1088473D01*
X1145144D01*
X1146810Y1090139D01*
Y1091806D01*
X1145144Y1093472D01*
X1141811D01*
X1140145Y1095138D01*
Y1096804D01*
X1141811Y1098470D01*
X1145144D01*
X1146810Y1096804D01*
X1136813Y1088473D02*
Y1098470D01*
X1131814D01*
X1130148Y1096804D01*
Y1090139D01*
X1131814Y1088473D01*
X1136813D01*
X1126816Y1098470D02*
Y1091806D01*
X1123484Y1088473D01*
X1120152Y1091806D01*
Y1098470D01*
Y1093472D01*
X1126816D01*
X1140145Y1063469D02*
X1141811Y1061803D01*
X1145144D01*
X1146810Y1063469D01*
Y1065136D01*
X1145144Y1066802D01*
X1141811D01*
X1140145Y1068468D01*
Y1070134D01*
X1141811Y1071800D01*
X1145144D01*
X1146810Y1070134D01*
X1130148Y1063469D02*
X1131814Y1061803D01*
X1135147D01*
X1136813Y1063469D01*
Y1070134D01*
X1135147Y1071800D01*
X1131814D01*
X1130148Y1070134D01*
X1126816Y1061803D02*
Y1071800D01*
X1120152D01*
X1140145Y1038070D02*
X1141811Y1036403D01*
X1145144D01*
X1146810Y1038070D01*
Y1044734D01*
X1145144Y1046400D01*
X1141811D01*
X1140145Y1044734D01*
Y1041402D01*
X1143477D01*
X1136813Y1046400D02*
Y1036403D01*
X1130148Y1046400D01*
Y1036403D01*
X1126816D02*
Y1046400D01*
X1121818D01*
X1120152Y1044734D01*
Y1038070D01*
X1121818Y1036403D01*
X1126816D01*
X1148080Y1011003D02*
Y1017668D01*
X1144747Y1021000D01*
X1141415Y1017668D01*
Y1011003D01*
X1131418Y1012670D02*
X1133084Y1011003D01*
X1136417D01*
X1138083Y1012670D01*
Y1019334D01*
X1136417Y1021000D01*
X1133084D01*
X1131418Y1019334D01*
X1121422Y1012670D02*
X1123088Y1011003D01*
X1126420D01*
X1128086Y1012670D01*
Y1019334D01*
X1126420Y1021000D01*
X1123088D01*
X1121422Y1019334D01*
D14*
X929640Y792480D02*
Y798830D01*
X1160780Y944880D02*
Y951230D01*
Y792480D02*
Y798830D01*
Y904240D02*
Y910590D01*
Y833120D02*
Y839470D01*
X1151890Y1017270D02*
Y1150620D01*
M02*
