G04*
G04 #@! TF.GenerationSoftware,Altium Limited,Altium Designer,24.6.1 (21)*
G04*
G04 Layer_Physical_Order=1*
G04 Layer_Color=255*
%FSLAX44Y44*%
%MOMM*%
G71*
G04*
G04 #@! TF.SameCoordinates,455CBF28-0157-4816-AAA5-8F8310DED926*
G04*
G04*
G04 #@! TF.FilePolarity,Positive*
G04*
G01*
G75*
%ADD29C,1.0000*%
%ADD30C,1.5240*%
%ADD31R,1.5240X1.5240*%
%ADD32C,1.8000*%
%ADD33C,1.3080*%
%ADD34C,2.1000*%
%ADD35R,1.5750X1.5750*%
%ADD36C,1.5750*%
%ADD37R,1.8000X1.8000*%
%ADD38C,1.8000*%
%ADD39R,1.8000X1.8000*%
%ADD40C,2.0320*%
G36*
X913595Y1264730D02*
X911955Y1264404D01*
X907405Y1262519D01*
X903310Y1259783D01*
X899828Y1256301D01*
X897092Y1252206D01*
X895208Y1247656D01*
X894247Y1242827D01*
X890270Y1242883D01*
Y1268730D01*
X913201D01*
X913595Y1264730D01*
D02*
G37*
G36*
X1553210Y718783D02*
X1549210Y717988D01*
X1548695Y719232D01*
X1545959Y723327D01*
X1542477Y726809D01*
X1538382Y729545D01*
X1533832Y731429D01*
X1529002Y732390D01*
X1524078D01*
X1519248Y731429D01*
X1514698Y729545D01*
X1510603Y726809D01*
X1507121Y723327D01*
X1504385Y719232D01*
X1502501Y714682D01*
X1501540Y709852D01*
Y704928D01*
X1502501Y700098D01*
X1504385Y695548D01*
X1507121Y691453D01*
X1510603Y687971D01*
X1514698Y685235D01*
X1515942Y684720D01*
X1515146Y680720D01*
X890270Y680720D01*
Y1237846D01*
X894247Y1237902D01*
X895208Y1233072D01*
X897092Y1228522D01*
X899828Y1224428D01*
X903310Y1220946D01*
X907405Y1218210D01*
X911955Y1216325D01*
X916785Y1215364D01*
X921709D01*
X926539Y1216325D01*
X931089Y1218210D01*
X935183Y1220946D01*
X938666Y1224428D01*
X941402Y1228522D01*
X943286Y1233072D01*
X944247Y1237902D01*
Y1242827D01*
X943286Y1247656D01*
X941402Y1252206D01*
X938666Y1256301D01*
X935183Y1259783D01*
X931089Y1262519D01*
X926539Y1264404D01*
X924899Y1264730D01*
X925293Y1268730D01*
X1553210Y1268730D01*
Y718783D01*
D02*
G37*
G36*
Y695996D02*
Y680720D01*
X1537934D01*
X1537138Y684720D01*
X1538382Y685235D01*
X1542477Y687971D01*
X1545959Y691453D01*
X1548695Y695548D01*
X1549210Y696792D01*
X1553210Y695996D01*
D02*
G37*
%LPC*%
G36*
X1178579Y1257480D02*
X1174541D01*
X1170580Y1256692D01*
X1166850Y1255147D01*
X1163492Y1252903D01*
X1162422Y1251833D01*
X1159885Y1252884D01*
X1156689Y1253520D01*
X1153431D01*
X1150236Y1252884D01*
X1147225Y1251638D01*
X1145060Y1250191D01*
X1142895Y1251638D01*
X1139885Y1252884D01*
X1136689Y1253520D01*
X1133431D01*
X1130236Y1252884D01*
X1127225Y1251638D01*
X1125060Y1250191D01*
X1122895Y1251638D01*
X1119885Y1252884D01*
X1116689Y1253520D01*
X1113431D01*
X1110235Y1252884D01*
X1107698Y1251833D01*
X1106628Y1252903D01*
X1103270Y1255147D01*
X1099540Y1256692D01*
X1095579Y1257480D01*
X1091541D01*
X1087580Y1256692D01*
X1083850Y1255147D01*
X1080492Y1252903D01*
X1077637Y1250048D01*
X1075393Y1246690D01*
X1073848Y1242960D01*
X1073060Y1238999D01*
Y1234961D01*
X1073848Y1231000D01*
X1075393Y1227270D01*
X1077637Y1223912D01*
X1080492Y1221057D01*
X1083850Y1218813D01*
X1087580Y1217268D01*
X1091541Y1216480D01*
X1095579D01*
X1099540Y1217268D01*
X1103270Y1218813D01*
X1106628Y1221057D01*
X1107698Y1222127D01*
X1110235Y1221076D01*
X1113431Y1220440D01*
X1116689D01*
X1119885Y1221076D01*
X1122895Y1222322D01*
X1125060Y1223769D01*
X1127225Y1222322D01*
X1130236Y1221076D01*
X1133431Y1220440D01*
X1136689D01*
X1139885Y1221076D01*
X1142895Y1222322D01*
X1145060Y1223769D01*
X1147225Y1222322D01*
X1150236Y1221076D01*
X1153431Y1220440D01*
X1156689D01*
X1159885Y1221076D01*
X1162422Y1222127D01*
X1163492Y1221057D01*
X1166850Y1218813D01*
X1170580Y1217268D01*
X1174541Y1216480D01*
X1178579D01*
X1182540Y1217268D01*
X1186270Y1218813D01*
X1189628Y1221057D01*
X1192483Y1223912D01*
X1194727Y1227270D01*
X1196272Y1231000D01*
X1197060Y1234961D01*
Y1238999D01*
X1196272Y1242960D01*
X1194727Y1246690D01*
X1192483Y1250048D01*
X1189628Y1252903D01*
X1186270Y1255147D01*
X1182540Y1256692D01*
X1178579Y1257480D01*
D02*
G37*
G36*
X1493985Y1180940D02*
X1490515D01*
X1487110Y1180263D01*
X1483904Y1178935D01*
X1481018Y1177006D01*
X1478564Y1174552D01*
X1476635Y1171666D01*
X1475307Y1168460D01*
X1474630Y1165055D01*
Y1161585D01*
X1475307Y1158180D01*
X1476635Y1154974D01*
X1478564Y1152088D01*
X1481018Y1149634D01*
X1483904Y1147705D01*
X1487110Y1146377D01*
X1490515Y1145700D01*
X1493985D01*
X1497390Y1146377D01*
X1500596Y1147705D01*
X1503482Y1149634D01*
X1505936Y1152088D01*
X1507865Y1154974D01*
X1509193Y1158180D01*
X1509870Y1161585D01*
Y1165055D01*
X1509193Y1168460D01*
X1507865Y1171666D01*
X1505936Y1174552D01*
X1503482Y1177006D01*
X1500596Y1178935D01*
X1497390Y1180263D01*
X1493985Y1180940D01*
D02*
G37*
G36*
X1214585D02*
X1211115D01*
X1207710Y1180263D01*
X1204504Y1178935D01*
X1201618Y1177006D01*
X1199164Y1174552D01*
X1197235Y1171666D01*
X1195907Y1168460D01*
X1195230Y1165055D01*
Y1161585D01*
X1195907Y1158180D01*
X1197235Y1154974D01*
X1199164Y1152088D01*
X1201618Y1149634D01*
X1204504Y1147705D01*
X1207710Y1146377D01*
X1211115Y1145700D01*
X1214585D01*
X1217990Y1146377D01*
X1221196Y1147705D01*
X1224082Y1149634D01*
X1226536Y1152088D01*
X1228465Y1154974D01*
X1229793Y1158180D01*
X1230470Y1161585D01*
Y1165055D01*
X1229793Y1168460D01*
X1228465Y1171666D01*
X1226536Y1174552D01*
X1224082Y1177006D01*
X1221196Y1178935D01*
X1217990Y1180263D01*
X1214585Y1180940D01*
D02*
G37*
G36*
X1166461Y1156920D02*
X1162719D01*
X1159048Y1156190D01*
X1155590Y1154758D01*
X1152478Y1152678D01*
X1149832Y1150032D01*
X1147752Y1146920D01*
X1146320Y1143462D01*
X1145590Y1139791D01*
Y1136049D01*
X1146320Y1132378D01*
X1147752Y1128920D01*
X1149832Y1125808D01*
X1152478Y1123162D01*
X1155590Y1121082D01*
X1159048Y1119650D01*
X1162719Y1118920D01*
X1166461D01*
X1170132Y1119650D01*
X1173590Y1121082D01*
X1176702Y1123162D01*
X1179348Y1125808D01*
X1181428Y1128920D01*
X1182860Y1132378D01*
X1183590Y1136049D01*
Y1139791D01*
X1182860Y1143462D01*
X1181428Y1146920D01*
X1179348Y1150032D01*
X1176702Y1152678D01*
X1173590Y1154758D01*
X1170132Y1156190D01*
X1166461Y1156920D01*
D02*
G37*
G36*
X1056086Y1158080D02*
X1052114D01*
X1048220Y1157305D01*
X1044551Y1155786D01*
X1041249Y1153579D01*
X1038441Y1150771D01*
X1036235Y1147469D01*
X1034715Y1143801D01*
X1033940Y1139906D01*
Y1135934D01*
X1034715Y1132039D01*
X1036235Y1128371D01*
X1038441Y1125069D01*
X1041249Y1122261D01*
X1044551Y1120054D01*
X1048220Y1118535D01*
X1052114Y1117760D01*
X1056086D01*
X1059980Y1118535D01*
X1063649Y1120054D01*
X1066951Y1122261D01*
X1069759Y1125069D01*
X1071965Y1128371D01*
X1073485Y1132039D01*
X1074260Y1135934D01*
Y1139906D01*
X1073485Y1143801D01*
X1071965Y1147469D01*
X1069759Y1150771D01*
X1066951Y1153579D01*
X1063649Y1155786D01*
X1059980Y1157305D01*
X1056086Y1158080D01*
D02*
G37*
G36*
X1214585Y1130140D02*
X1211115D01*
X1207710Y1129463D01*
X1204504Y1128135D01*
X1201618Y1126206D01*
X1199164Y1123752D01*
X1197235Y1120866D01*
X1195907Y1117660D01*
X1195230Y1114255D01*
Y1110785D01*
X1195907Y1107380D01*
X1197235Y1104174D01*
X1199164Y1101288D01*
X1200631Y1099820D01*
X1199164Y1098352D01*
X1197235Y1095466D01*
X1195907Y1092260D01*
X1195230Y1088855D01*
Y1085385D01*
X1195696Y1083043D01*
X1192190Y1080891D01*
X1183466Y1089616D01*
X1182860Y1092662D01*
X1181428Y1096120D01*
X1179348Y1099232D01*
X1176702Y1101878D01*
X1173590Y1103958D01*
X1170132Y1105390D01*
X1166461Y1106120D01*
X1162719D01*
X1159048Y1105390D01*
X1155590Y1103958D01*
X1152478Y1101878D01*
X1149832Y1099232D01*
X1147752Y1096120D01*
X1146320Y1092662D01*
X1145590Y1088991D01*
Y1085249D01*
X1146320Y1081578D01*
X1147752Y1078120D01*
X1149832Y1075008D01*
X1150420Y1074420D01*
X1149832Y1073832D01*
X1147752Y1070720D01*
X1146320Y1067262D01*
X1145590Y1063591D01*
Y1059849D01*
X1146320Y1056178D01*
X1147752Y1052720D01*
X1149832Y1049608D01*
X1152478Y1046962D01*
X1155590Y1044882D01*
X1159048Y1043450D01*
X1162719Y1042720D01*
X1166461D01*
X1170132Y1043450D01*
X1173590Y1044882D01*
X1175997Y1046491D01*
X1178410Y1045738D01*
X1179997Y1044601D01*
Y1029920D01*
X1145590D01*
Y991920D01*
X1183590D01*
X1186871Y990183D01*
X1195717Y981337D01*
X1195907Y980380D01*
X1197235Y977174D01*
X1199164Y974288D01*
X1201618Y971834D01*
X1204504Y969905D01*
X1207710Y968577D01*
X1211115Y967900D01*
X1214585D01*
X1217990Y968577D01*
X1221196Y969905D01*
X1224082Y971834D01*
X1226536Y974288D01*
X1228465Y977174D01*
X1229793Y980380D01*
X1230470Y983785D01*
Y987255D01*
X1229793Y990660D01*
X1228465Y993866D01*
X1226536Y996752D01*
X1225069Y998220D01*
X1226536Y999688D01*
X1228465Y1002574D01*
X1229793Y1005780D01*
X1230470Y1009185D01*
Y1012655D01*
X1229793Y1016060D01*
X1228465Y1019266D01*
X1226536Y1022152D01*
X1225069Y1023620D01*
X1226536Y1025088D01*
X1228465Y1027974D01*
X1229793Y1031180D01*
X1230470Y1034585D01*
Y1038055D01*
X1229793Y1041460D01*
X1228465Y1044666D01*
X1226536Y1047552D01*
X1225069Y1049020D01*
X1226536Y1050488D01*
X1228465Y1053374D01*
X1229793Y1056580D01*
X1230470Y1059985D01*
Y1063455D01*
X1229793Y1066860D01*
X1228465Y1070066D01*
X1226536Y1072952D01*
X1225069Y1074420D01*
X1226536Y1075888D01*
X1228465Y1078774D01*
X1229793Y1081980D01*
X1230470Y1085385D01*
Y1088855D01*
X1229793Y1092260D01*
X1228465Y1095466D01*
X1226536Y1098352D01*
X1225069Y1099820D01*
X1226536Y1101288D01*
X1228465Y1104174D01*
X1229793Y1107380D01*
X1230470Y1110785D01*
Y1114255D01*
X1229793Y1117660D01*
X1228465Y1120866D01*
X1226536Y1123752D01*
X1224082Y1126206D01*
X1221196Y1128135D01*
X1217990Y1129463D01*
X1214585Y1130140D01*
D02*
G37*
G36*
X947685Y1055265D02*
X911935D01*
Y1019515D01*
X911935Y1019515D01*
X912206Y1015515D01*
X911935Y1014150D01*
Y1010630D01*
X912622Y1007176D01*
X913969Y1003923D01*
X915926Y1000995D01*
X918415Y998506D01*
X921343Y996549D01*
X924596Y995202D01*
X928049Y994515D01*
X931571D01*
X935024Y995202D01*
X938277Y996549D01*
X941205Y998506D01*
X943694Y1000995D01*
X945651Y1003923D01*
X946998Y1007176D01*
X947685Y1010630D01*
Y1014150D01*
X947414Y1015515D01*
X947685Y1019515D01*
X947685D01*
Y1055265D01*
D02*
G37*
G36*
X1056086Y1031080D02*
X1052114D01*
X1048220Y1030305D01*
X1044551Y1028785D01*
X1041249Y1026579D01*
X1038441Y1023771D01*
X1036235Y1020469D01*
X1034715Y1016801D01*
X1033940Y1012906D01*
Y1008934D01*
X1034715Y1005040D01*
X1036235Y1001371D01*
X1038441Y998069D01*
X1041249Y995261D01*
X1044551Y993055D01*
X1048220Y991535D01*
X1052114Y990760D01*
X1056086D01*
X1059980Y991535D01*
X1063649Y993055D01*
X1066951Y995261D01*
X1069759Y998069D01*
X1071965Y1001371D01*
X1073485Y1005040D01*
X1074260Y1008934D01*
Y1012906D01*
X1073485Y1016801D01*
X1071965Y1020469D01*
X1069759Y1023771D01*
X1066951Y1026579D01*
X1063649Y1028785D01*
X1059980Y1030305D01*
X1056086Y1031080D01*
D02*
G37*
G36*
X935940Y971500D02*
X897940D01*
Y933500D01*
X935940D01*
Y971500D01*
D02*
G37*
G36*
X1167080Y976580D02*
X1129080D01*
Y939940D01*
X1129080Y935940D01*
X1129080Y934580D01*
Y897940D01*
X1167080D01*
Y934580D01*
X1167080Y938580D01*
X1167080Y939940D01*
Y976580D01*
D02*
G37*
G36*
Y864820D02*
X1129080D01*
Y826820D01*
X1167080D01*
Y864820D01*
D02*
G37*
G36*
X1214585Y952340D02*
X1211115D01*
X1207710Y951663D01*
X1204504Y950335D01*
X1201618Y948406D01*
X1199164Y945952D01*
X1197235Y943066D01*
X1195907Y939860D01*
X1195230Y936455D01*
Y932985D01*
X1195907Y929580D01*
X1197235Y926374D01*
X1199164Y923488D01*
X1200631Y922020D01*
X1199164Y920552D01*
X1197235Y917666D01*
X1195907Y914460D01*
X1195230Y911055D01*
Y907585D01*
X1195907Y904180D01*
X1197235Y900974D01*
X1199164Y898088D01*
X1200631Y896620D01*
X1199164Y895152D01*
X1197235Y892266D01*
X1195907Y889060D01*
X1195230Y885655D01*
Y882185D01*
X1195907Y878780D01*
X1197235Y875574D01*
X1199164Y872688D01*
X1200631Y871220D01*
X1199164Y869752D01*
X1197235Y866866D01*
X1195907Y863660D01*
X1195230Y860255D01*
Y856785D01*
X1195907Y853380D01*
X1197235Y850174D01*
X1199164Y847288D01*
X1200631Y845820D01*
X1199164Y844352D01*
X1197235Y841466D01*
X1195907Y838260D01*
X1195230Y834855D01*
Y831385D01*
X1195907Y827980D01*
X1197235Y824774D01*
X1199164Y821888D01*
X1199361Y821690D01*
X1199164Y821492D01*
X1197235Y818606D01*
X1195907Y815400D01*
X1195230Y811995D01*
Y808525D01*
X1195907Y805120D01*
X1197235Y801914D01*
X1199164Y799028D01*
X1201618Y796574D01*
X1204504Y794645D01*
X1207710Y793317D01*
X1211115Y792640D01*
X1214585D01*
X1217990Y793317D01*
X1221196Y794645D01*
X1224082Y796574D01*
X1226536Y799028D01*
X1228465Y801914D01*
X1229793Y805120D01*
X1230470Y808525D01*
Y811995D01*
X1229793Y815400D01*
X1228465Y818606D01*
X1226536Y821492D01*
X1226339Y821690D01*
X1226536Y821888D01*
X1228465Y824774D01*
X1229793Y827980D01*
X1230470Y831385D01*
Y834855D01*
X1229793Y838260D01*
X1228465Y841466D01*
X1226536Y844352D01*
X1225069Y845820D01*
X1226536Y847288D01*
X1228465Y850174D01*
X1229793Y853380D01*
X1230470Y856785D01*
Y860255D01*
X1229793Y863660D01*
X1228465Y866866D01*
X1226536Y869752D01*
X1225069Y871220D01*
X1226536Y872688D01*
X1228465Y875574D01*
X1229793Y878780D01*
X1230470Y882185D01*
Y885655D01*
X1229793Y889060D01*
X1228465Y892266D01*
X1226536Y895152D01*
X1225069Y896620D01*
X1226536Y898088D01*
X1228465Y900974D01*
X1229793Y904180D01*
X1230470Y907585D01*
Y911055D01*
X1229793Y914460D01*
X1228465Y917666D01*
X1226536Y920552D01*
X1225069Y922020D01*
X1226536Y923488D01*
X1228465Y926374D01*
X1229793Y929580D01*
X1230470Y932985D01*
Y936455D01*
X1229793Y939860D01*
X1228465Y943066D01*
X1226536Y945952D01*
X1224082Y948406D01*
X1221196Y950335D01*
X1217990Y951663D01*
X1214585Y952340D01*
D02*
G37*
G36*
X1493985Y1130140D02*
X1490515D01*
X1487110Y1129463D01*
X1483904Y1128135D01*
X1481018Y1126206D01*
X1478564Y1123752D01*
X1476635Y1120866D01*
X1475307Y1117660D01*
X1474630Y1114255D01*
Y1110785D01*
X1475307Y1107380D01*
X1476635Y1104174D01*
X1478564Y1101288D01*
X1480031Y1099820D01*
X1478564Y1098352D01*
X1476635Y1095466D01*
X1475307Y1092260D01*
X1474630Y1088855D01*
Y1085385D01*
X1475307Y1081980D01*
X1476635Y1078774D01*
X1478564Y1075888D01*
X1480031Y1074420D01*
X1478564Y1072952D01*
X1476635Y1070066D01*
X1475307Y1066860D01*
X1474630Y1063455D01*
Y1059985D01*
X1475307Y1056580D01*
X1476635Y1053374D01*
X1478564Y1050488D01*
X1480031Y1049020D01*
X1478564Y1047552D01*
X1476635Y1044666D01*
X1475307Y1041460D01*
X1474630Y1038055D01*
Y1034585D01*
X1475307Y1031180D01*
X1476635Y1027974D01*
X1478564Y1025088D01*
X1480031Y1023620D01*
X1478564Y1022152D01*
X1476635Y1019266D01*
X1475307Y1016060D01*
X1474630Y1012655D01*
Y1009185D01*
X1475307Y1005780D01*
X1476635Y1002574D01*
X1478564Y999688D01*
X1480031Y998220D01*
X1478564Y996752D01*
X1476635Y993866D01*
X1475307Y990660D01*
X1474630Y987255D01*
Y983785D01*
X1475307Y980380D01*
X1476635Y977174D01*
X1478564Y974288D01*
X1480031Y972820D01*
X1478564Y971352D01*
X1476635Y968466D01*
X1475307Y965260D01*
X1474630Y961855D01*
Y958385D01*
X1475307Y954980D01*
X1476635Y951774D01*
X1478564Y948888D01*
X1480031Y947420D01*
X1478564Y945952D01*
X1476635Y943066D01*
X1475307Y939860D01*
X1474630Y936455D01*
Y932985D01*
X1475307Y929580D01*
X1476635Y926374D01*
X1478564Y923488D01*
X1480031Y922020D01*
X1478564Y920552D01*
X1476635Y917666D01*
X1475307Y914460D01*
X1474630Y911055D01*
Y907585D01*
X1475307Y904180D01*
X1476635Y900974D01*
X1478564Y898088D01*
X1480031Y896620D01*
X1478564Y895152D01*
X1476635Y892266D01*
X1475307Y889060D01*
X1474630Y885655D01*
Y882185D01*
X1475307Y878780D01*
X1476635Y875574D01*
X1478564Y872688D01*
X1480031Y871220D01*
X1478564Y869752D01*
X1476635Y866866D01*
X1475307Y863660D01*
X1474630Y860255D01*
Y856785D01*
X1475307Y853380D01*
X1476635Y850174D01*
X1478564Y847288D01*
X1480031Y845820D01*
X1478564Y844352D01*
X1476635Y841466D01*
X1475307Y838260D01*
X1474630Y834855D01*
Y831385D01*
X1475037Y829340D01*
X1474630Y825340D01*
X1474630D01*
Y790100D01*
X1509870D01*
Y825340D01*
X1509870Y825340D01*
X1509463Y829340D01*
X1509870Y831385D01*
Y834855D01*
X1509193Y838260D01*
X1507865Y841466D01*
X1505936Y844352D01*
X1504469Y845820D01*
X1505936Y847288D01*
X1507865Y850174D01*
X1509193Y853380D01*
X1509870Y856785D01*
Y860255D01*
X1509193Y863660D01*
X1507865Y866866D01*
X1505936Y869752D01*
X1504469Y871220D01*
X1505936Y872688D01*
X1507865Y875574D01*
X1509193Y878780D01*
X1509870Y882185D01*
Y885655D01*
X1509193Y889060D01*
X1507865Y892266D01*
X1505936Y895152D01*
X1504469Y896620D01*
X1505936Y898088D01*
X1507865Y900974D01*
X1509193Y904180D01*
X1509870Y907585D01*
Y911055D01*
X1509193Y914460D01*
X1507865Y917666D01*
X1505936Y920552D01*
X1504469Y922020D01*
X1505936Y923488D01*
X1507865Y926374D01*
X1509193Y929580D01*
X1509870Y932985D01*
Y936455D01*
X1509193Y939860D01*
X1507865Y943066D01*
X1505936Y945952D01*
X1504469Y947420D01*
X1505936Y948888D01*
X1507865Y951774D01*
X1509193Y954980D01*
X1509870Y958385D01*
Y961855D01*
X1509193Y965260D01*
X1507865Y968466D01*
X1505936Y971352D01*
X1504469Y972820D01*
X1505936Y974288D01*
X1507865Y977174D01*
X1509193Y980380D01*
X1509870Y983785D01*
Y987255D01*
X1509193Y990660D01*
X1507865Y993866D01*
X1505936Y996752D01*
X1504469Y998220D01*
X1505936Y999688D01*
X1507865Y1002574D01*
X1509193Y1005780D01*
X1509870Y1009185D01*
Y1012655D01*
X1509193Y1016060D01*
X1507865Y1019266D01*
X1505936Y1022152D01*
X1504469Y1023620D01*
X1505936Y1025088D01*
X1507865Y1027974D01*
X1509193Y1031180D01*
X1509870Y1034585D01*
Y1038055D01*
X1509193Y1041460D01*
X1507865Y1044666D01*
X1505936Y1047552D01*
X1504469Y1049020D01*
X1505936Y1050488D01*
X1507865Y1053374D01*
X1509193Y1056580D01*
X1509870Y1059985D01*
Y1063455D01*
X1509193Y1066860D01*
X1507865Y1070066D01*
X1505936Y1072952D01*
X1504469Y1074420D01*
X1505936Y1075888D01*
X1507865Y1078774D01*
X1509193Y1081980D01*
X1509870Y1085385D01*
Y1088855D01*
X1509193Y1092260D01*
X1507865Y1095466D01*
X1505936Y1098352D01*
X1504469Y1099820D01*
X1505936Y1101288D01*
X1507865Y1104174D01*
X1509193Y1107380D01*
X1509870Y1110785D01*
Y1114255D01*
X1509193Y1117660D01*
X1507865Y1120866D01*
X1505936Y1123752D01*
X1503482Y1126206D01*
X1500596Y1128135D01*
X1497390Y1129463D01*
X1493985Y1130140D01*
D02*
G37*
G36*
X935940Y824180D02*
X897940D01*
Y786180D01*
X935940D01*
Y824180D01*
D02*
G37*
%LPD*%
D29*
X1195070Y1003300D02*
Y1056696D01*
Y1003300D02*
X1212850Y985520D01*
X1164646Y1087120D02*
X1195070Y1056696D01*
X1164590Y1087120D02*
X1164646D01*
D30*
X1212850Y883920D02*
D03*
Y934720D02*
D03*
Y909320D02*
D03*
Y858520D02*
D03*
Y833120D02*
D03*
Y810260D02*
D03*
X1492250Y1137920D02*
D03*
Y833120D02*
D03*
Y1163320D02*
D03*
Y1112520D02*
D03*
Y1087120D02*
D03*
Y1061720D02*
D03*
Y1036320D02*
D03*
Y1010920D02*
D03*
Y985520D02*
D03*
Y960120D02*
D03*
Y934720D02*
D03*
Y909320D02*
D03*
Y883920D02*
D03*
Y858520D02*
D03*
X1212850Y1137920D02*
D03*
Y960120D02*
D03*
Y985520D02*
D03*
Y1010920D02*
D03*
Y1036320D02*
D03*
Y1061720D02*
D03*
Y1087120D02*
D03*
Y1112520D02*
D03*
Y1163320D02*
D03*
D31*
X1492250Y807720D02*
D03*
D32*
X919247Y1240364D02*
D03*
X1526540Y707390D02*
D03*
D33*
X1155060Y1236980D02*
D03*
X1115060D02*
D03*
X1135060D02*
D03*
D34*
X1176560D02*
D03*
X1093560D02*
D03*
D35*
X929810Y1037390D02*
D03*
D36*
Y1012390D02*
D03*
D37*
X916940Y952500D02*
D03*
Y805180D02*
D03*
X1148080Y957580D02*
D03*
Y805180D02*
D03*
Y916940D02*
D03*
Y845820D02*
D03*
D38*
X1164590Y1137920D02*
D03*
Y1112520D02*
D03*
Y1087120D02*
D03*
Y1061720D02*
D03*
Y1036320D02*
D03*
D39*
Y1010920D02*
D03*
D40*
X1054100D02*
D03*
Y1137920D02*
D03*
M02*
