G04*
G04 #@! TF.GenerationSoftware,Altium Limited,Altium Designer,24.6.1 (21)*
G04*
G04 Layer_Color=255*
%FSLAX44Y44*%
%MOMM*%
G71*
G04*
G04 #@! TF.SameCoordinates,455CBF28-0157-4816-AAA5-8F8310DED926*
G04*
G04*
G04 #@! TF.FilePolarity,Positive*
G04*
G01*
G75*
%ADD30C,1.5240*%
%ADD31R,1.5240X1.5240*%
%ADD32C,1.8000*%
%ADD33C,1.3080*%
%ADD34C,2.1000*%
%ADD35R,1.5750X1.5750*%
%ADD36C,1.5750*%
%ADD37R,1.8000X1.8000*%
%ADD38C,1.8000*%
%ADD39R,1.8000X1.8000*%
%ADD40C,2.0320*%
D30*
X1212850Y883920D02*
D03*
Y934720D02*
D03*
Y909320D02*
D03*
Y858520D02*
D03*
Y833120D02*
D03*
Y810260D02*
D03*
X1492250Y1137920D02*
D03*
Y833120D02*
D03*
Y1163320D02*
D03*
Y1112520D02*
D03*
Y1087120D02*
D03*
Y1061720D02*
D03*
Y1036320D02*
D03*
Y1010920D02*
D03*
Y985520D02*
D03*
Y960120D02*
D03*
Y934720D02*
D03*
Y909320D02*
D03*
Y883920D02*
D03*
Y858520D02*
D03*
X1212850Y1137920D02*
D03*
Y960120D02*
D03*
Y985520D02*
D03*
Y1010920D02*
D03*
Y1036320D02*
D03*
Y1061720D02*
D03*
Y1087120D02*
D03*
Y1112520D02*
D03*
Y1163320D02*
D03*
D31*
X1492250Y807720D02*
D03*
D32*
X919247Y1240364D02*
D03*
X1526540Y707390D02*
D03*
D33*
X1155060Y1236980D02*
D03*
X1115060D02*
D03*
X1135060D02*
D03*
D34*
X1176560D02*
D03*
X1093560D02*
D03*
D35*
X929810Y1037390D02*
D03*
D36*
Y1012390D02*
D03*
D37*
X916940Y952500D02*
D03*
Y805180D02*
D03*
X1148080Y957580D02*
D03*
Y805180D02*
D03*
Y916940D02*
D03*
Y845820D02*
D03*
D38*
X1164590Y1137920D02*
D03*
Y1112520D02*
D03*
Y1087120D02*
D03*
Y1061720D02*
D03*
Y1036320D02*
D03*
D39*
Y1010920D02*
D03*
D40*
X1054100D02*
D03*
Y1137920D02*
D03*
M02*
