M48
;Layer_Color=9474304
;FILE_FORMAT=4:4
METRIC,LZ
;TYPE=PLATED
T01F00S00C0.8000
T02F00S00C0.9144
T03F00S00C1.0500
T04F00S00C1.2000
T05F00S00C1.4000
T06F00S00C3.0000
;TYPE=NON_PLATED
T07F00S00C2.0320
%
T01
X0111506Y0123698
X0113506
X0115506
T02
X0121285Y0081026
Y0083312
Y0085852
Y0088392
Y0090932
Y0093472
Y0096012
Y0098552
Y0101092
Y0103632
Y0106172
Y0108712
Y0111252
Y0113792
Y0116332
X0149225
Y0113792
Y0111252
Y0108712
Y0106172
Y0103632
Y0101092
Y0098552
Y0096012
Y0093472
Y0090932
Y0088392
Y0085852
Y0083312
Y0080772
T03
X0092981Y0101239
Y0103739
T04
X0091694Y0080518
Y009525
X0114808Y0095758
Y0091694
Y0084582
Y0080518
X0116459Y0101092
Y0103632
Y0106172
Y0108712
Y0111252
Y0113792
T05
X0109356Y0123698
X0117656
T06
X0152654Y0070739
X00919247Y01240364
T07
X010541Y0101092
Y0113792
M30
