G04*
G04 #@! TF.GenerationSoftware,Altium Limited,Altium Designer,24.6.1 (21)*
G04*
G04 Layer_Color=8388736*
%FSLAX44Y44*%
%MOMM*%
G71*
G04*
G04 #@! TF.SameCoordinates,455CBF28-0157-4816-AAA5-8F8310DED926*
G04*
G04*
G04 #@! TF.FilePolarity,Negative*
G04*
G01*
G75*
%ADD17C,1.6256*%
%ADD18C,1.7272*%
%ADD19R,1.6256X1.6256*%
%ADD20C,2.0032*%
%ADD21C,1.5112*%
%ADD22C,2.3032*%
%ADD23R,1.7782X1.7782*%
%ADD24C,1.7782*%
%ADD25R,2.0032X2.0032*%
%ADD26C,1.9016*%
%ADD27R,1.9016X1.9016*%
%ADD28C,2.2352*%
D17*
X1212850Y883920D02*
D03*
Y934720D02*
D03*
Y909320D02*
D03*
Y858520D02*
D03*
X1492250Y1137920D02*
D03*
Y833120D02*
D03*
Y1163320D02*
D03*
Y1112520D02*
D03*
Y1087120D02*
D03*
Y1061720D02*
D03*
Y1036320D02*
D03*
Y1010920D02*
D03*
Y985520D02*
D03*
Y960120D02*
D03*
Y934720D02*
D03*
Y909320D02*
D03*
Y883920D02*
D03*
Y858520D02*
D03*
X1212850Y1137920D02*
D03*
Y960120D02*
D03*
Y985520D02*
D03*
Y1010920D02*
D03*
Y1036320D02*
D03*
Y1061720D02*
D03*
Y1087120D02*
D03*
Y1112520D02*
D03*
Y1163320D02*
D03*
D18*
Y833120D02*
D03*
Y810260D02*
D03*
D19*
X1492250Y807720D02*
D03*
D20*
X919247Y1240364D02*
D03*
X1526540Y707390D02*
D03*
D21*
X1155060Y1236980D02*
D03*
X1115060D02*
D03*
X1135060D02*
D03*
D22*
X1176560D02*
D03*
X1093560D02*
D03*
D23*
X929810Y1037390D02*
D03*
D24*
Y1012390D02*
D03*
D25*
X916940Y952500D02*
D03*
Y805180D02*
D03*
X1148080Y957580D02*
D03*
Y805180D02*
D03*
Y916940D02*
D03*
Y845820D02*
D03*
D26*
X1164590Y1137920D02*
D03*
Y1112520D02*
D03*
Y1087120D02*
D03*
Y1061720D02*
D03*
Y1036320D02*
D03*
D27*
Y1010920D02*
D03*
D28*
X1054100D02*
D03*
Y1137920D02*
D03*
M02*
